<svg version="1.1" xmlns="http://www.w3.org/2000/svg" xmlns:xlink="http://www.w3.org/1999/xlink" width="1337" height="853"><defs/><g><g transform="translate(-6,-22) scale(1,1)"><rect fill="#C0C0C0" stroke="none" x="63" y="223" width="304.15966796875" height="190" opacity="0.2"/></g><g transform="translate(-6,-22) scale(1,1)"><rect fill="#ffffff" stroke="none" x="56" y="216" width="304.15966796875" height="190"/></g><g transform="translate(-6,-22) scale(1,1)"><path fill="none" stroke="#000000" d="M 56 216 L 360.15966796875 216 L 360.15966796875 406 L 56 406 L 56 216 Z Z" stroke-miterlimit="10"/></g><g transform="translate(-6,-22) scale(1,1)"><path fill="none" stroke="#000000" d="M 56 241 L 360.15966796875 241" stroke-miterlimit="10"/></g><g transform="translate(-6,-22) scale(1,1)"><path fill="none" stroke="#000000" d="M 56 294 L 360.15966796875 294" stroke-miterlimit="10"/></g><g transform="translate(-6,-22) scale(1,1)"><g><path fill="none" stroke="none"/><text fill="#000000" stroke="none" font-family="Arial" font-size="13px" font-style="normal" font-weight="bold" text-decoration="none" x="166.172607421875" y="235.5">AreaController</text></g></g><g transform="translate(-6,-22) scale(1,1)"><g><path fill="none" stroke="none"/><text fill="#000000" stroke="none" font-family="Arial" font-size="13px" font-style="normal" font-weight="normal" text-decoration="none" x="61" y="258.5">-models: Hastable&lt;Integer, Area&gt;</text></g></g><g transform="translate(-6,-22) scale(1,1)"><g><path fill="none" stroke="none"/><text fill="#000000" stroke="none" font-family="Arial" font-size="13px" font-style="normal" font-weight="normal" text-decoration="none" x="61" y="273.5">-view: Hashtable&lt;Interger, Area&gt;</text></g></g><g transform="translate(-6,-22) scale(1,1)"><g><path fill="none" stroke="none"/><text fill="#000000" stroke="none" font-family="Arial" font-size="13px" font-style="normal" font-weight="normal" text-decoration="none" x="61" y="288.5">-current: int</text></g></g><g transform="translate(-6,-22) scale(1,1)"><g><path fill="none" stroke="none"/><text fill="#000000" stroke="none" font-family="Arial" font-size="13px" font-style="normal" font-weight="normal" text-decoration="none" x="61" y="311.5">+dispose(): void</text></g></g><g transform="translate(-6,-22) scale(1,1)"><g><path fill="none" stroke="none"/><text fill="#000000" stroke="none" font-family="Arial" font-size="13px" font-style="normal" font-weight="normal" text-decoration="none" x="61" y="326.5">+getStart(): World</text></g></g><g transform="translate(-6,-22) scale(1,1)"><g><path fill="none" stroke="none"/><text fill="#000000" stroke="none" font-family="Arial" font-size="13px" font-style="normal" font-weight="normal" text-decoration="none" x="61" y="341.5">+getWorlds(): Hashtable&lt;Interger World&gt;</text></g></g><g transform="translate(-6,-22) scale(1,1)"><g><path fill="none" stroke="none"/><text fill="#000000" stroke="none" font-family="Arial" font-size="13px" font-style="normal" font-weight="normal" text-decoration="none" x="61" y="356.5">+initialize(): void</text></g></g><g transform="translate(-6,-22) scale(1,1)"><g><path fill="none" stroke="none"/><text fill="#000000" stroke="none" font-family="Arial" font-size="13px" font-style="normal" font-weight="normal" text-decoration="none" x="61" y="371.5">+render(batch: SpriteBatch, camera: Camera): void</text></g></g><g transform="translate(-6,-22) scale(1,1)"><g><path fill="none" stroke="none"/><text fill="#000000" stroke="none" font-family="Arial" font-size="13px" font-style="normal" font-weight="normal" text-decoration="none" x="61" y="386.5">+update(world: World): void</text></g></g><g transform="translate(-6,-22) scale(1,1)"><g><path fill="none" stroke="none"/><text fill="#000000" stroke="none" font-family="Arial" font-size="13px" font-style="normal" font-weight="normal" text-decoration="none" x="61" y="401.5">+won(): boolean</text></g></g><g transform="translate(-6,-22) scale(1,1)"><rect fill="#C0C0C0" stroke="none" x="23" y="447" width="356.9150390625" height="104" opacity="0.2"/></g><g transform="translate(-6,-22) scale(1,1)"><rect fill="#ffffff" stroke="none" x="16" y="440" width="356.9150390625" height="104"/></g><g transform="translate(-6,-22) scale(1,1)"><path fill="none" stroke="#000000" d="M 16 440 L 372.9150390625 440 L 372.9150390625 544 L 16 544 L 16 440 Z Z" stroke-miterlimit="10"/></g><g transform="translate(-6,-22) scale(1,1)"><path fill="none" stroke="#000000" d="M 16 465 L 372.9150390625 465" stroke-miterlimit="10"/></g><g transform="translate(-6,-22) scale(1,1)"><path fill="none" stroke="#000000" d="M 16 475 L 372.9150390625 475" stroke-miterlimit="10"/></g><g transform="translate(-6,-22) scale(1,1)"><g><path fill="none" stroke="none"/><text fill="#000000" stroke="none" font-family="Arial" font-size="13px" font-style="normal" font-weight="bold" text-decoration="none" x="146.767578125" y="459.5">CollisionListener</text></g></g><g transform="translate(-6,-22) scale(1,1)"><g><path fill="none" stroke="none"/><text fill="#000000" stroke="none" font-family="Arial" font-size="13px" font-style="normal" font-weight="normal" text-decoration="none" x="21" y="492.5">+beginContac(contact: Contact): void</text></g></g><g transform="translate(-6,-22) scale(1,1)"><g><path fill="none" stroke="none"/><text fill="#000000" stroke="none" font-family="Arial" font-size="13px" font-style="normal" font-weight="normal" text-decoration="none" x="21" y="507.5">+endContact(contact: Contact): void</text></g></g><g transform="translate(-6,-22) scale(1,1)"><g><path fill="none" stroke="none"/><text fill="#000000" stroke="none" font-family="Arial" font-size="13px" font-style="normal" font-weight="normal" text-decoration="none" x="21" y="522.5">+postSolve(contact: Contact, impulse: ContactImpulse): void</text></g></g><g transform="translate(-6,-22) scale(1,1)"><g><path fill="none" stroke="none"/><text fill="#000000" stroke="none" font-family="Arial" font-size="13px" font-style="normal" font-weight="normal" text-decoration="none" x="21" y="537.5">+preSolve(contact: Contact, oldManifold: Manifold): void</text></g></g><g transform="translate(-6,-22) scale(1,1)"><rect fill="#C0C0C0" stroke="none" x="687" y="39" width="347" height="340" opacity="0.2"/></g><g transform="translate(-6,-22) scale(1,1)"><rect fill="#ffffff" stroke="none" x="680" y="32" width="347" height="340"/></g><g transform="translate(-6,-22) scale(1,1)"><path fill="none" stroke="#000000" d="M 680 32 L 1027 32 L 1027 372 L 680 372 L 680 32 Z Z" stroke-miterlimit="10"/></g><g transform="translate(-6,-22) scale(1,1)"><path fill="none" stroke="#000000" d="M 680 57 L 1027 57" stroke-miterlimit="10"/></g><g transform="translate(-6,-22) scale(1,1)"><path fill="none" stroke="#000000" d="M 680 110 L 1027 110" stroke-miterlimit="10"/></g><g transform="translate(-6,-22) scale(1,1)"><g><path fill="none" stroke="none"/><text fill="#000000" stroke="none" font-family="Arial" font-size="13px" font-style="normal" font-weight="bold" text-decoration="none" x="815.918701171875" y="51.5">InputListener</text></g></g><g transform="translate(-6,-22) scale(1,1)"><g><path fill="none" stroke="none"/><text fill="#000000" stroke="none" font-family="Arial" font-size="13px" font-style="normal" font-weight="normal" text-decoration="none" x="685" y="74.5">-inputs: HashSet&lt;String&gt;</text></g></g><g transform="translate(-6,-22) scale(1,1)"><g><path fill="none" stroke="none"/><text fill="#000000" stroke="none" font-family="Arial" font-size="13px" font-style="normal" font-weight="normal" text-decoration="none" x="685" y="89.5">-mouse: Vector2</text></g></g><g transform="translate(-6,-22) scale(1,1)"><g><path fill="none" stroke="none"/><text fill="#000000" stroke="none" font-family="Arial" font-size="13px" font-style="normal" font-weight="normal" text-decoration="none" x="685" y="104.5">-viewport Viewport</text></g></g><g transform="translate(-6,-22) scale(1,1)"><g><path fill="none" stroke="none"/><text fill="#000000" stroke="none" font-family="Arial" font-size="13px" font-style="normal" font-weight="normal" text-decoration="none" x="685" y="127.5">+getDirection(): Vector2</text></g></g><g transform="translate(-6,-22) scale(1,1)"><g><path fill="none" stroke="none"/><text fill="#000000" stroke="none" font-family="Arial" font-size="13px" font-style="normal" font-weight="normal" text-decoration="none" x="685" y="142.5">+getMouse(): Vector2</text></g></g><g transform="translate(-6,-22) scale(1,1)"><g><path fill="none" stroke="none"/><text fill="#000000" stroke="none" font-family="Arial" font-size="13px" font-style="normal" font-weight="normal" text-decoration="none" x="685" y="157.5">+getPause(): boolean</text></g></g><g transform="translate(-6,-22) scale(1,1)"><g><path fill="none" stroke="none"/><text fill="#000000" stroke="none" font-family="Arial" font-size="13px" font-style="normal" font-weight="normal" text-decoration="none" x="685" y="172.5">+getReload(): boolean</text></g></g><g transform="translate(-6,-22) scale(1,1)"><g><path fill="none" stroke="none"/><text fill="#000000" stroke="none" font-family="Arial" font-size="13px" font-style="normal" font-weight="normal" text-decoration="none" x="685" y="187.5">+getShoot(): boolean</text></g></g><g transform="translate(-6,-22) scale(1,1)"><g><path fill="none" stroke="none"/><text fill="#000000" stroke="none" font-family="Arial" font-size="13px" font-style="normal" font-weight="normal" text-decoration="none" x="685" y="202.5">+getStart(): boolean</text></g></g><g transform="translate(-6,-22) scale(1,1)"><g><path fill="none" stroke="none"/><text fill="#000000" stroke="none" font-family="Arial" font-size="13px" font-style="normal" font-weight="normal" text-decoration="none" x="685" y="217.5">+getWepon(): String</text></g></g><g transform="translate(-6,-22) scale(1,1)"><g><path fill="none" stroke="none"/><text fill="#000000" stroke="none" font-family="Arial" font-size="13px" font-style="normal" font-weight="normal" text-decoration="none" x="685" y="232.5">+keyDown(keycode: int): boolean</text></g></g><g transform="translate(-6,-22) scale(1,1)"><g><path fill="none" stroke="none"/><text fill="#000000" stroke="none" font-family="Arial" font-size="13px" font-style="normal" font-weight="normal" text-decoration="none" x="685" y="247.5">+keyUp(keycode: int): boolean</text></g></g><g transform="translate(-6,-22) scale(1,1)"><g><path fill="none" stroke="none"/><text fill="#000000" stroke="none" font-family="Arial" font-size="13px" font-style="normal" font-weight="normal" text-decoration="none" x="685" y="262.5">+mouseMoved(x: int, y: int): boolean</text></g></g><g transform="translate(-6,-22) scale(1,1)"><g><path fill="none" stroke="none"/><text fill="#000000" stroke="none" font-family="Arial" font-size="13px" font-style="normal" font-weight="normal" text-decoration="none" x="685" y="277.5">+touchDown(x: int, y: int, pointer: int, button: int): boolean</text></g></g><g transform="translate(-6,-22) scale(1,1)"><g><path fill="none" stroke="none"/><text fill="#000000" stroke="none" font-family="Arial" font-size="13px" font-style="normal" font-weight="normal" text-decoration="none" x="685" y="292.5">+touchDragged(x: int, y: int, int: pointer): boolean</text></g></g><g transform="translate(-6,-22) scale(1,1)"><g><path fill="none" stroke="none"/><text fill="#000000" stroke="none" font-family="Arial" font-size="13px" font-style="normal" font-weight="normal" text-decoration="none" x="685" y="307.5">+touchUp(x: int, y: int, pointer: int, button: int): boolean</text></g></g><g transform="translate(-6,-22) scale(1,1)"><g><path fill="none" stroke="none"/><text fill="#000000" stroke="none" font-family="Arial" font-size="13px" font-style="normal" font-weight="normal" text-decoration="none" x="685" y="322.5">+checkMove(keycode: int): void</text></g></g><g transform="translate(-6,-22) scale(1,1)"><g><path fill="none" stroke="none"/><text fill="#000000" stroke="none" font-family="Arial" font-size="13px" font-style="normal" font-weight="normal" text-decoration="none" x="685" y="337.5">+checkOthers(keycode: int): void</text></g></g><g transform="translate(-6,-22) scale(1,1)"><g><path fill="none" stroke="none"/><text fill="#000000" stroke="none" font-family="Arial" font-size="13px" font-style="normal" font-weight="normal" text-decoration="none" x="685" y="352.5">+checkStop(keycode: int): void</text></g></g><g transform="translate(-6,-22) scale(1,1)"><g><path fill="none" stroke="none"/><text fill="#000000" stroke="none" font-family="Arial" font-size="13px" font-style="normal" font-weight="normal" text-decoration="none" x="685" y="367.5">+checkWeapons(keycode: int): void</text></g></g><g transform="translate(-6,-22) scale(1,1)"><rect fill="#C0C0C0" stroke="none" x="423" y="207" width="211" height="565" opacity="0.2"/></g><g transform="translate(-6,-22) scale(1,1)"><rect fill="#ffffff" stroke="none" x="416" y="200" width="211" height="565"/></g><g transform="translate(-6,-22) scale(1,1)"><path fill="none" stroke="#000000" d="M 416 200 L 627 200 L 627 765 L 416 765 L 416 200 Z Z" stroke-miterlimit="10"/></g><g transform="translate(-6,-22) scale(1,1)"><path fill="none" stroke="#000000" d="M 416 225 L 627 225" stroke-miterlimit="10"/></g><g transform="translate(-6,-22) scale(1,1)"><path fill="none" stroke="#000000" d="M 416 428 L 627 428" stroke-miterlimit="10"/></g><g transform="translate(-6,-22) scale(1,1)"><g><path fill="none" stroke="none"/><text fill="#000000" stroke="none" font-family="Arial" font-size="13px" font-style="normal" font-weight="bold" text-decoration="none" x="485.74365234375" y="219.5">MrController</text></g></g><g transform="translate(-6,-22) scale(1,1)"><g><path fill="none" stroke="none"/><text fill="#000000" stroke="none" font-family="Arial" font-size="13px" font-style="normal" font-weight="normal" text-decoration="none" x="421" y="242.5">-batch: SpriteBatch</text></g></g><g transform="translate(-6,-22) scale(1,1)"><g><path fill="none" stroke="none"/><text fill="#000000" stroke="none" font-family="Arial" font-size="13px" font-style="normal" font-weight="normal" text-decoration="none" x="421" y="257.5">-loadingScreen: LoadingScreen</text></g></g><g transform="translate(-6,-22) scale(1,1)"><g><path fill="none" stroke="none"/><text fill="#000000" stroke="none" font-family="Arial" font-size="13px" font-style="normal" font-weight="normal" text-decoration="none" x="421" y="272.5">-pause: PauseView</text></g></g><g transform="translate(-6,-22) scale(1,1)"><g><path fill="none" stroke="none"/><text fill="#000000" stroke="none" font-family="Arial" font-size="13px" font-style="normal" font-weight="normal" text-decoration="none" x="421" y="287.5">-ui: UiView</text></g></g><g transform="translate(-6,-22) scale(1,1)"><g><path fill="none" stroke="none"/><text fill="#000000" stroke="none" font-family="Arial" font-size="13px" font-style="normal" font-weight="normal" text-decoration="none" x="421" y="302.5">-viewport: FitViewport</text></g></g><g transform="translate(-6,-22) scale(1,1)"><g><path fill="none" stroke="none"/><text fill="#000000" stroke="none" font-family="Arial" font-size="13px" font-style="normal" font-weight="normal" text-decoration="none" x="421" y="317.5">-areas: AreasController</text></g></g><g transform="translate(-6,-22) scale(1,1)"><g><path fill="none" stroke="none"/><text fill="#000000" stroke="none" font-family="Arial" font-size="13px" font-style="normal" font-weight="normal" text-decoration="none" x="421" y="332.5">-pickups: PickupController</text></g></g><g transform="translate(-6,-22) scale(1,1)"><g><path fill="none" stroke="none"/><text fill="#000000" stroke="none" font-family="Arial" font-size="13px" font-style="normal" font-weight="normal" text-decoration="none" x="421" y="347.5">-player: PlayerController</text></g></g><g transform="translate(-6,-22) scale(1,1)"><g><path fill="none" stroke="none"/><text fill="#000000" stroke="none" font-family="Arial" font-size="13px" font-style="normal" font-weight="normal" text-decoration="none" x="421" y="362.5">-projectiles: ProjectileController</text></g></g><g transform="translate(-6,-22) scale(1,1)"><g><path fill="none" stroke="none"/><text fill="#000000" stroke="none" font-family="Arial" font-size="13px" font-style="normal" font-weight="normal" text-decoration="none" x="421" y="377.5">-zombies: ZombieController</text></g></g><g transform="translate(-6,-22) scale(1,1)"><g><path fill="none" stroke="none"/><text fill="#000000" stroke="none" font-family="Arial" font-size="13px" font-style="normal" font-weight="normal" text-decoration="none" x="421" y="392.5">-collisions: CollisionListener</text></g></g><g transform="translate(-6,-22) scale(1,1)"><g><path fill="none" stroke="none"/><text fill="#000000" stroke="none" font-family="Arial" font-size="13px" font-style="normal" font-weight="normal" text-decoration="none" x="421" y="407.5">-inputs: InputListener</text></g></g><g transform="translate(-6,-22) scale(1,1)"><g><path fill="none" stroke="none"/><text fill="#000000" stroke="none" font-family="Arial" font-size="13px" font-style="normal" font-weight="normal" text-decoration="none" x="421" y="422.5">-focused: boollean</text></g></g><g transform="translate(-6,-22) scale(1,1)"><g><path fill="none" stroke="none"/><text fill="#000000" stroke="none" font-family="Arial" font-size="13px" font-style="normal" font-weight="normal" text-decoration="none" x="421" y="445.5">+create(): void</text></g></g><g transform="translate(-6,-22) scale(1,1)"><g><path fill="none" stroke="none"/><text fill="#000000" stroke="none" font-family="Arial" font-size="13px" font-style="normal" font-weight="normal" text-decoration="none" x="421" y="460.5">+dispose(): void</text></g></g><g transform="translate(-6,-22) scale(1,1)"><g><path fill="none" stroke="none"/><text fill="#000000" stroke="none" font-family="Arial" font-size="13px" font-style="normal" font-weight="normal" text-decoration="none" x="421" y="475.5">+pause(): void</text></g></g><g transform="translate(-6,-22) scale(1,1)"><g><path fill="none" stroke="none"/><text fill="#000000" stroke="none" font-family="Arial" font-size="13px" font-style="normal" font-weight="normal" text-decoration="none" x="421" y="490.5">+resize(width: int, height: int): void</text></g></g><g transform="translate(-6,-22) scale(1,1)"><g><path fill="none" stroke="none"/><text fill="#000000" stroke="none" font-family="Arial" font-size="13px" font-style="normal" font-weight="normal" text-decoration="none" x="421" y="505.5">+render(): void</text></g></g><g transform="translate(-6,-22) scale(1,1)"><g><path fill="none" stroke="none"/><text fill="#000000" stroke="none" font-family="Arial" font-size="13px" font-style="normal" font-weight="normal" text-decoration="none" x="421" y="520.5">+resume(): void</text></g></g><g transform="translate(-6,-22) scale(1,1)"><g><path fill="none" stroke="none"/><text fill="#000000" stroke="none" font-family="Arial" font-size="13px" font-style="normal" font-weight="normal" text-decoration="none" x="421" y="535.5">-draw(): void</text></g></g><g transform="translate(-6,-22) scale(1,1)"><g><path fill="none" stroke="none"/><text fill="#000000" stroke="none" font-family="Arial" font-size="13px" font-style="normal" font-weight="normal" text-decoration="none" x="421" y="550.5">-addControls(): void</text></g></g><g transform="translate(-6,-22) scale(1,1)"><g><path fill="none" stroke="none"/><text fill="#000000" stroke="none" font-family="Arial" font-size="13px" font-style="normal" font-weight="normal" text-decoration="none" x="421" y="565.5">-addStart(): void</text></g></g><g transform="translate(-6,-22) scale(1,1)"><g><path fill="none" stroke="none"/><text fill="#000000" stroke="none" font-family="Arial" font-size="13px" font-style="normal" font-weight="normal" text-decoration="none" x="421" y="580.5">-initialize(): void</text></g></g><g transform="translate(-6,-22) scale(1,1)"><g><path fill="none" stroke="none"/><text fill="#000000" stroke="none" font-family="Arial" font-size="13px" font-style="normal" font-weight="normal" text-decoration="none" x="421" y="595.5">-initializeAreas(): void</text></g></g><g transform="translate(-6,-22) scale(1,1)"><g><path fill="none" stroke="none"/><text fill="#000000" stroke="none" font-family="Arial" font-size="13px" font-style="normal" font-weight="normal" text-decoration="none" x="421" y="610.5">-initializeCollisions(): void</text></g></g><g transform="translate(-6,-22) scale(1,1)"><g><path fill="none" stroke="none"/><text fill="#000000" stroke="none" font-family="Arial" font-size="13px" font-style="normal" font-weight="normal" text-decoration="none" x="421" y="625.5">-initializeInputs(): void</text></g></g><g transform="translate(-6,-22) scale(1,1)"><g><path fill="none" stroke="none"/><text fill="#000000" stroke="none" font-family="Arial" font-size="13px" font-style="normal" font-weight="normal" text-decoration="none" x="421" y="640.5">-initializeLoot(): void</text></g></g><g transform="translate(-6,-22) scale(1,1)"><g><path fill="none" stroke="none"/><text fill="#000000" stroke="none" font-family="Arial" font-size="13px" font-style="normal" font-weight="normal" text-decoration="none" x="421" y="655.5">-initializePause(): void</text></g></g><g transform="translate(-6,-22) scale(1,1)"><g><path fill="none" stroke="none"/><text fill="#000000" stroke="none" font-family="Arial" font-size="13px" font-style="normal" font-weight="normal" text-decoration="none" x="421" y="670.5">-initializePlayer(): void</text></g></g><g transform="translate(-6,-22) scale(1,1)"><g><path fill="none" stroke="none"/><text fill="#000000" stroke="none" font-family="Arial" font-size="13px" font-style="normal" font-weight="normal" text-decoration="none" x="421" y="685.5">-initializeProjectiles(): void</text></g></g><g transform="translate(-6,-22) scale(1,1)"><g><path fill="none" stroke="none"/><text fill="#000000" stroke="none" font-family="Arial" font-size="13px" font-style="normal" font-weight="normal" text-decoration="none" x="421" y="700.5">-initializeUi(): void</text></g></g><g transform="translate(-6,-22) scale(1,1)"><g><path fill="none" stroke="none"/><text fill="#000000" stroke="none" font-family="Arial" font-size="13px" font-style="normal" font-weight="normal" text-decoration="none" x="421" y="715.5">-initializeViewport(): void</text></g></g><g transform="translate(-6,-22) scale(1,1)"><g><path fill="none" stroke="none"/><text fill="#000000" stroke="none" font-family="Arial" font-size="13px" font-style="normal" font-weight="normal" text-decoration="none" x="421" y="730.5">-initializeZombies(): void</text></g></g><g transform="translate(-6,-22) scale(1,1)"><g><path fill="none" stroke="none"/><text fill="#000000" stroke="none" font-family="Arial" font-size="13px" font-style="normal" font-weight="normal" text-decoration="none" x="421" y="745.5">-pollStart(): void</text></g></g><g transform="translate(-6,-22) scale(1,1)"><g><path fill="none" stroke="none"/><text fill="#000000" stroke="none" font-family="Arial" font-size="13px" font-style="normal" font-weight="normal" text-decoration="none" x="421" y="760.5">-update(): void</text></g></g><g transform="translate(-6,-22) scale(1,1)"><rect fill="#C0C0C0" stroke="none" x="63" y="39" width="279.587890625" height="130" opacity="0.2"/></g><g transform="translate(-6,-22) scale(1,1)"><rect fill="#ffffff" stroke="none" x="56" y="32" width="279.587890625" height="130"/></g><g transform="translate(-6,-22) scale(1,1)"><path fill="none" stroke="#000000" d="M 56 32 L 335.587890625 32 L 335.587890625 162 L 56 162 L 56 32 Z Z" stroke-miterlimit="10"/></g><g transform="translate(-6,-22) scale(1,1)"><path fill="none" stroke="#000000" d="M 56 57 L 335.587890625 57" stroke-miterlimit="10"/></g><g transform="translate(-6,-22) scale(1,1)"><path fill="none" stroke="#000000" d="M 56 95 L 335.587890625 95" stroke-miterlimit="10"/></g><g transform="translate(-6,-22) scale(1,1)"><g><path fill="none" stroke="none"/><text fill="#000000" stroke="none" font-family="Arial" font-size="13px" font-style="normal" font-weight="bold" text-decoration="none" x="148.107177734375" y="51.5">PickupController</text></g></g><g transform="translate(-6,-22) scale(1,1)"><g><path fill="none" stroke="none"/><text fill="#000000" stroke="none" font-family="Arial" font-size="13px" font-style="normal" font-weight="normal" text-decoration="none" x="61" y="74.5">-models: Hashtable&lt;Integer, Pickup&gt;</text></g></g><g transform="translate(-6,-22) scale(1,1)"><g><path fill="none" stroke="none"/><text fill="#000000" stroke="none" font-family="Arial" font-size="13px" font-style="normal" font-weight="normal" text-decoration="none" x="61" y="89.5">-views: Hashtable&lt;Integer, EntityView&gt;</text></g></g><g transform="translate(-6,-22) scale(1,1)"><g><path fill="none" stroke="none"/><text fill="#000000" stroke="none" font-family="Arial" font-size="13px" font-style="normal" font-weight="normal" text-decoration="none" x="61" y="112.5">+dispose(): void</text></g></g><g transform="translate(-6,-22) scale(1,1)"><g><path fill="none" stroke="none"/><text fill="#000000" stroke="none" font-family="Arial" font-size="13px" font-style="normal" font-weight="normal" text-decoration="none" x="61" y="127.5">+remove(): void</text></g></g><g transform="translate(-6,-22) scale(1,1)"><g><path fill="none" stroke="none"/><text fill="#000000" stroke="none" font-family="Arial" font-size="13px" font-style="normal" font-weight="normal" text-decoration="none" x="61" y="142.5">+render(batch: SpriteBatch, world: World): void</text></g></g><g transform="translate(-6,-22) scale(1,1)"><g><path fill="none" stroke="none"/><text fill="#000000" stroke="none" font-family="Arial" font-size="13px" font-style="normal" font-weight="normal" text-decoration="none" x="61" y="157.5">-createPickups(tmx: String, wolrd: World): void</text></g></g><g transform="translate(-6,-22) scale(1,1)"><rect fill="#C0C0C0" stroke="none" x="663" y="447" width="677" height="190" opacity="0.2"/></g><g transform="translate(-6,-22) scale(1,1)"><rect fill="#ffffff" stroke="none" x="656" y="440" width="677" height="190"/></g><g transform="translate(-6,-22) scale(1,1)"><path fill="none" stroke="#000000" d="M 656 440 L 1333 440 L 1333 630 L 656 630 L 656 440 Z Z" stroke-miterlimit="10"/></g><g transform="translate(-6,-22) scale(1,1)"><path fill="none" stroke="#000000" d="M 656 465 L 1333 465" stroke-miterlimit="10"/></g><g transform="translate(-6,-22) scale(1,1)"><path fill="none" stroke="#000000" d="M 656 503 L 1333 503" stroke-miterlimit="10"/></g><g transform="translate(-6,-22) scale(1,1)"><g><path fill="none" stroke="none"/><text fill="#000000" stroke="none" font-family="Arial" font-size="13px" font-style="normal" font-weight="bold" text-decoration="none" x="947.898681640625" y="459.5">PlayerController</text></g></g><g transform="translate(-6,-22) scale(1,1)"><g><path fill="none" stroke="none"/><text fill="#000000" stroke="none" font-family="Arial" font-size="13px" font-style="normal" font-weight="normal" text-decoration="none" x="661" y="482.5">-model: Player</text></g></g><g transform="translate(-6,-22) scale(1,1)"><g><path fill="none" stroke="none"/><text fill="#000000" stroke="none" font-family="Arial" font-size="13px" font-style="normal" font-weight="normal" text-decoration="none" x="661" y="497.5">-view: EntityView</text></g></g><g transform="translate(-6,-22) scale(1,1)"><g><path fill="none" stroke="none"/><text fill="#000000" stroke="none" font-family="Arial" font-size="13px" font-style="normal" font-weight="normal" text-decoration="none" x="661" y="520.5">+dispose(): void</text></g></g><g transform="translate(-6,-22) scale(1,1)"><g><path fill="none" stroke="none"/><text fill="#000000" stroke="none" font-family="Arial" font-size="13px" font-style="normal" font-weight="normal" text-decoration="none" x="661" y="535.5">+getCurrentWeapon(): Weapon</text></g></g><g transform="translate(-6,-22) scale(1,1)"><g><path fill="none" stroke="none"/><text fill="#000000" stroke="none" font-family="Arial" font-size="13px" font-style="normal" font-weight="normal" text-decoration="none" x="661" y="550.5">+getLife(): float</text></g></g><g transform="translate(-6,-22) scale(1,1)"><g><path fill="none" stroke="none"/><text fill="#000000" stroke="none" font-family="Arial" font-size="13px" font-style="normal" font-weight="normal" text-decoration="none" x="661" y="565.5">+getX(): float</text></g></g><g transform="translate(-6,-22) scale(1,1)"><g><path fill="none" stroke="none"/><text fill="#000000" stroke="none" font-family="Arial" font-size="13px" font-style="normal" font-weight="normal" text-decoration="none" x="661" y="580.5">+getY(): float</text></g></g><g transform="translate(-6,-22) scale(1,1)"><g><path fill="none" stroke="none"/><text fill="#000000" stroke="none" font-family="Arial" font-size="13px" font-style="normal" font-weight="normal" text-decoration="none" x="661" y="595.5">+getWorld(): World</text></g></g><g transform="translate(-6,-22) scale(1,1)"><g><path fill="none" stroke="none"/><text fill="#000000" stroke="none" font-family="Arial" font-size="13px" font-style="normal" font-weight="normal" text-decoration="none" x="661" y="610.5">+render(batch: SpriteBatch): void</text></g></g><g transform="translate(-6,-22) scale(1,1)"><g><path fill="none" stroke="none"/><text fill="#000000" stroke="none" font-family="Arial" font-size="13px" font-style="normal" font-weight="normal" text-decoration="none" x="661" y="625.5">+update(direction: Vector2, mouse: Vector2, weapon: String, reload: boolean, shoot: boolean): HashSet&lt;Projectile&gt;</text></g></g><g transform="translate(-6,-22) scale(1,1)"><rect fill="#C0C0C0" stroke="none" x="375" y="39" width="279.587890625" height="130" opacity="0.2"/></g><g transform="translate(-6,-22) scale(1,1)"><rect fill="#ffffff" stroke="none" x="368" y="32" width="279.587890625" height="130"/></g><g transform="translate(-6,-22) scale(1,1)"><path fill="none" stroke="#000000" d="M 368 32 L 647.587890625 32 L 647.587890625 162 L 368 162 L 368 32 Z Z" stroke-miterlimit="10"/></g><g transform="translate(-6,-22) scale(1,1)"><path fill="none" stroke="#000000" d="M 368 57 L 647.587890625 57" stroke-miterlimit="10"/></g><g transform="translate(-6,-22) scale(1,1)"><path fill="none" stroke="#000000" d="M 368 95 L 647.587890625 95" stroke-miterlimit="10"/></g><g transform="translate(-6,-22) scale(1,1)"><g><path fill="none" stroke="none"/><text fill="#000000" stroke="none" font-family="Arial" font-size="13px" font-style="normal" font-weight="bold" text-decoration="none" x="452.883544921875" y="51.5">ProjectileController</text></g></g><g transform="translate(-6,-22) scale(1,1)"><g><path fill="none" stroke="none"/><text fill="#000000" stroke="none" font-family="Arial" font-size="13px" font-style="normal" font-weight="normal" text-decoration="none" x="373" y="74.5">-models: HashSet&lt;Projectile&gt;</text></g></g><g transform="translate(-6,-22) scale(1,1)"><g><path fill="none" stroke="none"/><text fill="#000000" stroke="none" font-family="Arial" font-size="13px" font-style="normal" font-weight="normal" text-decoration="none" x="373" y="89.5">-views: HashSet&lt;EntityView&gt;</text></g></g><g transform="translate(-6,-22) scale(1,1)"><g><path fill="none" stroke="none"/><text fill="#000000" stroke="none" font-family="Arial" font-size="13px" font-style="normal" font-weight="normal" text-decoration="none" x="373" y="112.5">+add(projectiles: HashSet&lt;Projectile&gt;): void</text></g></g><g transform="translate(-6,-22) scale(1,1)"><g><path fill="none" stroke="none"/><text fill="#000000" stroke="none" font-family="Arial" font-size="13px" font-style="normal" font-weight="normal" text-decoration="none" x="373" y="127.5">+dispose(): void</text></g></g><g transform="translate(-6,-22) scale(1,1)"><g><path fill="none" stroke="none"/><text fill="#000000" stroke="none" font-family="Arial" font-size="13px" font-style="normal" font-weight="normal" text-decoration="none" x="373" y="142.5">+remove(): void</text></g></g><g transform="translate(-6,-22) scale(1,1)"><g><path fill="none" stroke="none"/><text fill="#000000" stroke="none" font-family="Arial" font-size="13px" font-style="normal" font-weight="normal" text-decoration="none" x="373" y="157.5">+render(batch: SpriteBatch, world: World): void</text></g></g><g transform="translate(-6,-22) scale(1,1)"><rect fill="#C0C0C0" stroke="none" x="663" y="727" width="338" height="145" opacity="0.2"/></g><g transform="translate(-6,-22) scale(1,1)"><rect fill="#ffffff" stroke="none" x="656" y="720" width="338" height="145"/></g><g transform="translate(-6,-22) scale(1,1)"><path fill="none" stroke="#000000" d="M 656 720 L 994 720 L 994 865 L 656 865 L 656 720 Z Z" stroke-miterlimit="10"/></g><g transform="translate(-6,-22) scale(1,1)"><path fill="none" stroke="#000000" d="M 656 745 L 994 745" stroke-miterlimit="10"/></g><g transform="translate(-6,-22) scale(1,1)"><path fill="none" stroke="#000000" d="M 656 783 L 994 783" stroke-miterlimit="10"/></g><g transform="translate(-6,-22) scale(1,1)"><g><path fill="none" stroke="none"/><text fill="#000000" stroke="none" font-family="Arial" font-size="13px" font-style="normal" font-weight="bold" text-decoration="none" x="775.148681640625" y="739.5">ZombieController</text></g></g><g transform="translate(-6,-22) scale(1,1)"><g><path fill="none" stroke="none"/><text fill="#000000" stroke="none" font-family="Arial" font-size="13px" font-style="normal" font-weight="normal" text-decoration="none" x="661" y="762.5">-models: HashSet&lt;Zombie&gt;</text></g></g><g transform="translate(-6,-22) scale(1,1)"><g><path fill="none" stroke="none"/><text fill="#000000" stroke="none" font-family="Arial" font-size="13px" font-style="normal" font-weight="normal" text-decoration="none" x="661" y="777.5">-views: HashSet&lt;EntityView&gt;</text></g></g><g transform="translate(-6,-22) scale(1,1)"><g><path fill="none" stroke="none"/><text fill="#000000" stroke="none" font-family="Arial" font-size="13px" font-style="normal" font-weight="normal" text-decoration="none" x="661" y="800.5">+dispose(): void</text></g></g><g transform="translate(-6,-22) scale(1,1)"><g><path fill="none" stroke="none"/><text fill="#000000" stroke="none" font-family="Arial" font-size="13px" font-style="normal" font-weight="normal" text-decoration="none" x="661" y="815.5">+remove(): void</text></g></g><g transform="translate(-6,-22) scale(1,1)"><g><path fill="none" stroke="none"/><text fill="#000000" stroke="none" font-family="Arial" font-size="13px" font-style="normal" font-weight="normal" text-decoration="none" x="661" y="830.5">+render(batch: SpriteBatch, world: World): void</text></g></g><g transform="translate(-6,-22) scale(1,1)"><g><path fill="none" stroke="none"/><text fill="#000000" stroke="none" font-family="Arial" font-size="13px" font-style="normal" font-weight="normal" text-decoration="none" x="661" y="845.5">+update(world: World, playerX: float, playerY: float): void</text></g></g><g transform="translate(-6,-22) scale(1,1)"><g><path fill="none" stroke="none"/><text fill="#000000" stroke="none" font-family="Arial" font-size="13px" font-style="normal" font-weight="normal" text-decoration="none" x="661" y="860.5">-createZombie(tmx: String, world: World): void</text></g></g><g transform="translate(-6,-22) scale(1,1)"><path fill="none" stroke="#000000" d="M 628 392 L 679 349" stroke-miterlimit="10"/></g><g transform="translate(-6,-22) scale(1,1)"><path fill="#000000" stroke="none" d="M 673.9438517922655 358.7691025842409 L 679 349 L 668.5169646322029 352.3325619990505 L 662.1805088989329 363.1811395558017"/></g><g transform="translate(-6,-22) scale(1,1)"><path fill="none" stroke="#000000" d="M 673.9438517922655 358.7691025842409 L 679 349 L 668.5169646322029 352.3325619990505 L 662.1805088989329 363.1811395558017 L 673.9438517922655 358.7691025842409" stroke-miterlimit="10"/></g><g transform="translate(-6,-22) scale(1,1)"><path fill="none" stroke="#000000" d="M 415 485 L 374 486" stroke-miterlimit="10"/></g><g transform="translate(-6,-22) scale(1,1)"><path fill="#000000" stroke="none" d="M 384.05701275961445 481.543937348628 L 374 486 L 384.26229403898026 489.96046980262577 L 395.9934591941471 485.4635741659964"/></g><g transform="translate(-6,-22) scale(1,1)"><path fill="none" stroke="#000000" d="M 384.05701275961445 481.543937348628 L 374 486 L 384.26229403898026 489.96046980262577 L 395.9934591941471 485.4635741659964 L 384.05701275961445 481.543937348628" stroke-miterlimit="10"/></g><g transform="translate(-6,-22) scale(1,1)"><path fill="none" stroke="#000000" d="M 415 424 L 361 395" stroke-miterlimit="10"/></g><g transform="translate(-6,-22) scale(1,1)"><path fill="#000000" stroke="none" d="M 371.9448949196662 396.0996704949511 L 361 395 L 367.96162495301945 403.5167938811208 L 380.38187744457565 405.4087860350499"/></g><g transform="translate(-6,-22) scale(1,1)"><path fill="none" stroke="#000000" d="M 371.9448949196662 396.0996704949511 L 361 395 L 367.96162495301945 403.5167938811208 L 380.38187744457565 405.4087860350499 L 371.9448949196662 396.0996704949511" stroke-miterlimit="10"/></g><g transform="translate(-6,-22) scale(1,1)"><path fill="none" stroke="#000000" d="M 520 766 L 520 792 L 655 792" stroke-miterlimit="10"/></g><g transform="translate(-6,-22) scale(1,1)"><path fill="#000000" stroke="none" d="M 644.8373251423759 796.209517756016 L 655 792 L 644.8373251423758 787.790482243984 L 633 792"/></g><g transform="translate(-6,-22) scale(1,1)"><path fill="none" stroke="#000000" d="M 644.8373251423759 796.209517756016 L 655 792 L 644.8373251423758 787.790482243984 L 633 792 L 644.8373251423759 796.209517756016" stroke-miterlimit="10"/></g><g transform="translate(-6,-22) scale(1,1)"><path fill="none" stroke="#000000" d="M 628 494 L 655 497" stroke-miterlimit="10"/></g><g transform="translate(-6,-22) scale(1,1)"><path fill="#000000" stroke="none" d="M 644.4346192883949 500.06149153499416 L 655 497 L 645.3643462280668 491.693949077946 L 633.1345578371804 494.5705064263534"/></g><g transform="translate(-6,-22) scale(1,1)"><path fill="none" stroke="#000000" d="M 644.4346192883949 500.06149153499416 L 655 497 L 645.3643462280668 491.693949077946 L 633.1345578371804 494.5705064263534 L 644.4346192883949 500.06149153499416" stroke-miterlimit="10"/></g><g transform="translate(-6,-22) scale(1,1)"><path fill="none" stroke="#000000" d="M 511 199 L 509 163" stroke-miterlimit="10"/></g><g transform="translate(-6,-22) scale(1,1)"><path fill="#000000" stroke="none" d="M 513.766760359266 172.9135258953276 L 509 163 L 505.3606871882736 173.38052996038275 L 510.2203404316955 184.96612777051908"/></g><g transform="translate(-6,-22) scale(1,1)"><path fill="none" stroke="#000000" d="M 513.766760359266 172.9135258953276 L 509 163 L 505.3606871882736 173.38052996038275 L 510.2203404316955 184.96612777051908 L 513.766760359266 172.9135258953276" stroke-miterlimit="10"/></g><g transform="translate(-6,-22) scale(1,1)"><path fill="none" stroke="#000000" d="M 415 257 L 392 208 L 312 163" stroke-miterlimit="10"/></g><g transform="translate(-6,-22) scale(1,1)"><path fill="#000000" stroke="none" d="M 322.9213021909756 164.31345287444648 L 312 163 L 318.79377540433626 171.65127827291641 L 331.17466181674007 173.7857472719163"/></g><g transform="translate(-6,-22) scale(1,1)"><path fill="none" stroke="#000000" d="M 322.9213021909756 164.31345287444648 L 312 163 L 318.79377540433626 171.65127827291641 L 331.17466181674007 173.7857472719163 L 322.9213021909756 164.31345287444648" stroke-miterlimit="10"/></g><g transform="translate(-6,-22) scale(1,1)"><path fill="none" stroke="#000000" d="M 198 439 L 201 407" stroke-miterlimit="10" stroke-dasharray="3"/></g><g transform="translate(-6,-22) scale(1,1)"><path fill="none" stroke="#000000" d="M 204.24254867966604 417.51122628716536 L 201 407 L 195.86026877347842 416.72538754596025" stroke-miterlimit="10"/></g><g transform="translate(-6,-22) scale(1,1)"><path fill="none" stroke="#000000" d="M 873 719 L 931 631" stroke-miterlimit="10" stroke-dasharray="3"/></g><g transform="translate(-6,-22) scale(1,1)"><path fill="none" stroke="#000000" d="M 928.9221156186937 641.8019626225017 L 931 631 L 921.8925728429622 637.1688548839513" stroke-miterlimit="10"/></g><g transform="translate(-6,-22) scale(1,1)"><path fill="none" stroke="#000000" d="M 605 163 L 648 192 L 648 400 L 896 400 L 924 439" stroke-miterlimit="10" stroke-dasharray="3"/></g><g transform="translate(-6,-22) scale(1,1)"><path fill="none" stroke="#000000" d="M 914.6535679084942 433.19963732522956 L 924 439 L 921.4925502688682 428.28959870752516" stroke-miterlimit="10"/></g><g transform="translate(-6,-22) scale(1,1)"><path fill="none" stroke="#000000" d="M 953 439 L 925 373" stroke-miterlimit="10" stroke-dasharray="3"/></g><g transform="translate(-6,-22) scale(1,1)"><path fill="none" stroke="#000000" d="M 932.8442364659629 380.71154681410013 L 925 373 L 925.0938257526254 383.9995998440009" stroke-miterlimit="10"/></g></g></svg>